<?xml version="1.0" encoding="UTF-8"?>
<svg version="1.1" xmlns="http://www.w3.org/2000/svg" width="200" height="200">
<path d="M0 0 C1.19434158 -0.0071553 2.38868317 -0.01431061 3.61921692 -0.02168274 C4.9314473 -0.02437164 6.24367767 -0.02706055 7.59567261 -0.02983093 C8.99036325 -0.03609693 10.38505223 -0.04274386 11.77973938 -0.04974365 C16.36274048 -0.0707758 20.94574186 -0.08114741 25.52877808 -0.09111023 C27.10824475 -0.09515855 28.68771126 -0.09927549 30.26717758 -0.10346031 C37.69049448 -0.12251263 45.11380145 -0.13674179 52.5371381 -0.14507228 C61.09541161 -0.15483569 69.65342586 -0.18113142 78.21160805 -0.22157317 C84.83256339 -0.25178233 91.45344464 -0.26654582 98.07446754 -0.26985329 C102.02578669 -0.27219894 105.9768289 -0.28109525 109.92807388 -0.30631447 C113.64967365 -0.3296836 117.3708159 -0.33379334 121.09247017 -0.32355309 C123.09820106 -0.32282568 125.10390918 -0.34185604 127.10954285 -0.36161804 C137.58697958 -0.30155383 144.82169991 2.07155495 152.54440308 9.20967102 C157.31097475 14.55858403 159.38906881 20.80171074 159.4181366 27.87620544 C159.42886955 29.66771782 159.42886955 29.66771782 159.43981934 31.49542236 C159.44250824 32.80765274 159.44519714 34.11988312 159.44796753 35.47187805 C159.45423353 36.86656869 159.46088045 38.26125767 159.46788025 39.65594482 C159.4889124 44.23894592 159.49928401 48.82194731 159.50924683 53.40498352 C159.51329514 54.9844502 159.51741209 56.5639167 159.52159691 58.14338303 C159.54064923 65.56669993 159.55487838 72.9900069 159.56320888 80.41334355 C159.57297228 88.97161705 159.59926802 97.5296313 159.63970977 106.0878135 C159.66991893 112.70876884 159.68468242 119.32965009 159.68798989 125.95067298 C159.69033554 129.90199214 159.69923185 133.85303435 159.72445107 137.80427933 C159.7478202 141.5258791 159.75192994 145.24702134 159.74168968 148.96867561 C159.74096228 150.97440651 159.75999263 152.98011462 159.77975464 154.98574829 C159.71969043 165.46318503 157.34658165 172.69790536 150.20846558 180.42060852 C144.85955256 185.1871802 138.61642586 187.26527425 131.54193115 187.29434204 C130.34758957 187.30149734 129.15324799 187.30865265 127.92271423 187.31602478 C125.95436867 187.32005814 125.95436867 187.32005814 123.94625854 187.32417297 C122.5515679 187.33043897 121.15687893 187.3370859 119.76219177 187.34408569 C115.17919068 187.36511784 110.59618929 187.37548945 106.01315308 187.38545227 C104.4336864 187.38950059 102.85421989 187.39361753 101.27475357 187.39780235 C93.85143667 187.41685467 86.4281297 187.43108383 79.00479305 187.43941432 C70.44651954 187.44917773 61.8885053 187.47547346 53.3303231 187.51591522 C46.70936776 187.54612437 40.08848651 187.56088786 33.46746361 187.56419533 C29.51614446 187.56654098 25.56510225 187.57543729 21.61385727 187.60065651 C17.8922575 187.62402564 14.17111525 187.62813538 10.44946098 187.61789513 C8.44373009 187.61716772 6.43802197 187.63619808 4.43238831 187.65596008 C-6.04504843 187.59589587 -13.27976876 185.22278709 -21.00247192 178.08467102 C-25.7690436 172.73575801 -27.84713766 166.4926313 -27.87620544 159.4181366 C-27.88336075 158.22379501 -27.89051605 157.02945343 -27.89788818 155.79891968 C-27.90057709 154.4866893 -27.90326599 153.17445892 -27.90603638 151.82246399 C-27.91230238 150.42777335 -27.9189493 149.03308437 -27.9259491 147.63839722 C-27.94698125 143.05539612 -27.95735286 138.47239474 -27.96731567 133.88935852 C-27.97136399 132.30989184 -27.97548093 130.73042534 -27.97966576 129.15095901 C-27.99871807 121.72764211 -28.01294723 114.30433514 -28.02127773 106.88099849 C-28.03104113 98.32272499 -28.05733686 89.76471074 -28.09777862 81.20652854 C-28.12798778 74.5855732 -28.14275127 67.96469195 -28.14605874 61.34366906 C-28.14840439 57.3923499 -28.1573007 53.44130769 -28.18251991 49.49006271 C-28.20588905 45.76846295 -28.20999879 42.0473207 -28.19975853 38.32566643 C-28.19903113 36.31993553 -28.21806148 34.31422742 -28.23782349 32.30859375 C-28.17775928 21.83115701 -25.8046505 14.59643668 -18.66653442 6.87373352 C-13.31762141 2.10716184 -7.0744947 0.02906779 0 0 Z " fill="#3B3F46" transform="translate(34.729034423828125,6.8528289794921875)"/>
<path d="M0 0 C0 43.23 0 86.46 0 131 C-6.27 131 -12.54 131 -19 131 C-19 127.7 -19 124.4 -19 121 C-19.57105469 121.45890625 -20.14210938 121.9178125 -20.73046875 122.390625 C-30.32873047 129.65417441 -40.90154946 133.40719567 -53 132 C-64.80668823 130.02462102 -75.09887975 125.19638586 -83 116 C-91.45371045 102.49016559 -94.04058721 88.37938548 -90.80859375 72.6875 C-87.33478869 61.14171314 -77.89559786 50.90262677 -67.484375 45.1796875 C-54.95475696 39.230089 -43.08483125 38.47559337 -29.94140625 42.8515625 C-26.45579893 44.21247691 -23.83645143 45.56875592 -21 48 C-21 48.66 -21 49.32 -21 50 C-20.34 50 -19.68 50 -19 50 C-19.0942627 49.1248877 -19.18852539 48.24977539 -19.28564453 47.34814453 C-21.79038991 20.54278924 -21.79038991 20.54278924 -15.02734375 11.8671875 C-3.80420006 0 -3.80420006 0 0 0 Z " fill="#BAEAFC" transform="translate(124,41)"/>
<path d="M0 0 C7.30095319 3.37688627 12.50071913 8.90278104 15.78125 16.1953125 C17.93818967 23.20536642 17.44448833 30.94874494 14.7890625 37.7734375 C10.5732749 45.6108413 4.90438057 50.0517408 -3.375 52.9375 C-4.365 53.4325 -4.365 53.4325 -5.375 53.9375 C-13.69931714 54.91400643 -20.8971047 53.28820097 -27.640625 48.2421875 C-34.65356014 41.82665054 -37.50517699 34.87100969 -37.9375 25.4375 C-37.66539788 17.97663533 -35.54443237 12.38027151 -30.47265625 6.87109375 C-21.75650717 -1.14240992 -11.54973577 -3.68949893 0 0 Z " fill="#3C4047" transform="translate(89.375,101.0625)"/>
<path d="M0 0 C2.92168957 1.01623985 4.03001281 1.59157361 5.875 4 C5.921875 6.015625 5.921875 6.015625 5.625 8.25 C5.49460795 12.23347707 6.19341823 14.0970571 8.875 17.0625 C10.93382908 18.88841104 12.16325069 19.9112021 14.91015625 20.25390625 C15.57917969 20.21136719 16.24820313 20.16882813 16.9375 20.125 C21.50588842 19.9799718 21.50588842 19.9799718 24.375 22.1875 C26.875 25 26.875 25 27.25 27.8125 C27.064375 28.8953125 27.064375 28.8953125 26.875 30 C26.215 30 25.555 30 24.875 30 C24.5965625 30.9590625 24.5965625 30.9590625 24.3125 31.9375 C22.875 34 22.875 34 19.5 35 C15.875 35 15.875 35 13.5 33.625 C11.78118238 30.84844845 11.69706345 29.83628466 11.5625 26.6875 C11.19290364 21.93779356 9.67315703 19.40108294 6.09765625 16.2734375 C2.58729896 14.26223104 -0.39034649 13.99612114 -4.390625 14.22265625 C-9.26616312 15.60870209 -12.08902339 19.10281513 -15.125 23 C-15.455 21.68 -15.785 20.36 -16.125 19 C-15.5475 18.57589844 -14.97 18.15179688 -14.375 17.71484375 C-12.09565355 15.91431834 -10.04452952 14.18341163 -8.125 12 C-7.87484127 8.41642759 -7.87484127 8.41642759 -8.125 5 C-5.59445579 1.427467 -4.46056767 0 0 0 Z " fill="#17C8F7" transform="translate(143.125,23)"/>
<path d="M0 0 C1.13199353 0.9080162 2.25532363 1.82683826 3.375 2.75 C4.00148437 3.26046875 4.62796875 3.7709375 5.2734375 4.296875 C7.08312318 6.08199481 8.00117455 7.67949644 9 10 C9.99 9.34 10.98 8.68 12 8 C15.5772533 7.54332937 17.33458305 7.56222569 20.375 9.5625 C22.5996142 12.8994213 22.50030235 15.06905293 22 19 C20.9375 20.9375 20.9375 20.9375 19 22 C15.13051412 22.49248002 12.92495309 22.60852177 9.625 20.4375 C8 18 8 18 7.6875 14.6875 C6.82459725 10.05920341 4.99750502 8.62767526 1.49609375 5.67578125 C0 4 0 4 0 0 Z " fill="#19CBFB" transform="translate(127,54)"/>
<path d="M0 0 C0.33 0 0.66 0 1 0 C1.33 3.96 1.66 7.92 2 12 C-0.475 13.485 -0.475 13.485 -3 15 C-4.29666785 16.03081332 -5.57040913 17.09153747 -6.8125 18.1875 C-7.41707031 18.71730469 -8.02164063 19.24710938 -8.64453125 19.79296875 C-9.09183594 20.19128906 -9.53914063 20.58960937 -10 21 C-9.9375 18.875 -9.9375 18.875 -9 16 C-7.375 14.578125 -7.375 14.578125 -5.4375 13.125 C-3.50469267 11.68221186 -3.50469267 11.68221186 -2 10 C-1.58274322 6.37400578 -1.58274322 6.37400578 -2 3 C-1.34 2.01 -0.68 1.02 0 0 Z " fill="#2EC8F5" transform="translate(137,25)"/>
<path d="M0 0 C1.12588014 0.95729916 2.2506715 1.91587895 3.375 2.875 C4.00148437 3.40867188 4.62796875 3.94234375 5.2734375 4.4921875 C8.97762864 7.72706935 8.97762864 7.72706935 9.1953125 10.3828125 C9.16050781 11.74019531 9.16050781 11.74019531 9.125 13.125 C9.10695312 14.03507812 9.08890625 14.94515625 9.0703125 15.8828125 C9.03550781 16.93082031 9.03550781 16.93082031 9 18 C8.67 18 8.34 18 8 18 C7.979375 16.989375 7.95875 15.97875 7.9375 14.9375 C7.36006003 10.4803852 4.81580735 8.47449352 1.49609375 5.67578125 C0 4 0 4 0 0 Z " fill="#3EBEE6" transform="translate(127,54)"/>
<path d="M0 0 C0.66 0.33 1.32 0.66 2 1 C-1.75 6.875 -1.75 6.875 -4 8 C-3.50168276 4.31245243 -2.89932357 2.39509338 0 0 Z " fill="#44BFE7" transform="translate(131,38)"/>
</svg>
